# xmcd
#
# Track frame offsets:
# 150
# 14674
# 31394
# 48536
# 59018
# 80048
# 95456
# 106091
# 130768
# 145596
#
# Disc length: 2102 seconds
#
#
# Revision: 0
# Processed by: cddbd v1.5.1PL2 Copyright (c) Steve Scherf et al.
# Submitted via: FreeRIP 2.943 
#
DISCID=8608340a
DTITLE=Ricky  Skaggs - Ricky Skaggs  cd 1 
DYEAR=2000
DGENRE=Country
TTITLE0=Highway 40 Bluies
TTITLE1=A Wound Time Can't Erase
TTITLE2=Sweet Temptation
TTITLE3=Lonesome For You
TTITLE4=San Antonio Rose
TTITLE5=Window Up Above
TTITLE6=I Don't Care
TTITLE7=One Way Rider
TTITLE8=I Wonder If I Care As Much
TTITLE9=Let It Be You
EXTD=
EXTT0=
EXTT1=
EXTT2=
EXTT3=
EXTT4=
EXTT5=
EXTT6=
EXTT7=
EXTT8=
EXTT9=
PLAYORDER=
